<?xml version="1.0" standalone="no"?><!DOCTYPE svg PUBLIC "-//W3C//DTD SVG 1.1//EN" "http://www.w3.org/Graphics/SVG/1.1/DTD/svg11.dtd"><svg t="1659943014314" class="icon" viewBox="0 0 1024 1024" version="1.1" xmlns="http://www.w3.org/2000/svg" p-id="6358" xmlns:xlink="http://www.w3.org/1999/xlink" width="200" height="200"><defs><style type="text/css">@font-face { font-family: feedback-iconfont; src: url("//at.alicdn.com/t/font_1031158_u69w8yhxdu.woff2?t=1630033759944") format("woff2"), url("//at.alicdn.com/t/font_1031158_u69w8yhxdu.woff?t=1630033759944") format("woff"), url("//at.alicdn.com/t/font_1031158_u69w8yhxdu.ttf?t=1630033759944") format("truetype"); }
</style></defs><path d="M858.112 65.664 545.664 65.664c-17.664 0-32 14.336-32 32s14.336 32 32 32l242.752 0L521.024 397.12c-12.032 12.032-12.032 31.36 0 43.392 11.968 11.968 31.36 11.968 43.328 0l269.376-269.376 0 246.592c0 17.664 14.336 32 32 32s32-14.336 32-32l0-320C897.664 76.352 878.016 65.664 858.112 65.664zM105.216 897.664l312.512 0c17.664 0 32-14.336 32-32s-14.336-32-32-32L174.912 833.664l267.456-267.456C454.4 554.24 454.4 534.848 442.368 522.88c-11.968-11.968-31.36-11.968-43.328 0l-269.376 269.376L129.664 545.664c0-17.664-14.336-32-32-32s-32 14.336-32 32l0 320C65.664 888 81.344 897.664 105.216 897.664z" p-id="6359" fill="#ffffff"></path></svg>